<?xml version="1.0" encoding="UTF-8"?>
<!DOCTYPE svg PUBLIC "-//W3C//DTD SVG 1.1//EN" "http://www.w3.org/Graphics/SVG/1.1/DTD/svg11.dtd">
<svg xmlns="http://www.w3.org/2000/svg" version="1.1" width="32px" height="32px" style="shape-rendering:geometricPrecision; text-rendering:geometricPrecision; image-rendering:optimizeQuality; fill-rule:evenodd; clip-rule:evenodd" xmlns:xlink="http://www.w3.org/1999/xlink">
<g><path style="opacity:0.516" fill="#c4bebd" d="M 31.5,4.5 C 31.5,11.8333 31.5,19.1667 31.5,26.5C 20.8333,27.8333 10.1667,27.8333 -0.5,26.5C -0.5,19.1667 -0.5,11.8333 -0.5,4.5C 10.1667,3.16667 20.8333,3.16667 31.5,4.5 Z M 4.5,7.5 C 11.6549,6.34485 18.9882,6.17818 26.5,7C 22.7557,9.95531 18.9224,12.7886 15,15.5C 11.7397,12.4605 8.23972,9.79383 4.5,7.5 Z M 1.5,9.5 C 4.43628,11.0979 7.10295,13.0979 9.5,15.5C 6.94635,17.7081 4.44635,20.0414 2,22.5C 1.50098,18.1794 1.33432,13.8461 1.5,9.5 Z M 27.5,9.5 C 28.8001,11.223 29.4668,13.3897 29.5,16C 29.3333,18.1667 29.1667,20.3333 29,22.5C 26.5536,20.0414 24.0536,17.7081 21.5,15.5C 23.5332,13.4934 25.5332,11.4934 27.5,9.5 Z M 12.5,17.5 C 14.3388,18.7525 16.1722,18.7525 18,17.5C 20.7433,19.7879 23.5767,21.9545 26.5,24C 19.1667,24.6667 11.8333,24.6667 4.5,24C 7.35533,21.9692 10.022,19.8025 12.5,17.5 Z"/></g>
</svg>
