<?xml version="1.0" ?><svg enable-background="new 0 0 24 24" id="Layer_1" version="1.1" viewBox="0 0 24 24" xml:space="preserve" xmlns="http://www.w3.org/2000/svg" xmlns:xlink="http://www.w3.org/1999/xlink"><path d="M21.2216797,4.3793945c-0.1455078-0.6914063-0.4375-1.3334961-0.8740234-1.9155273  c-0.7128906-0.9506836-1.7412109-1.605957-2.8945313-1.8461914C16.0976563,0.3359375,14.0517578,0,12,0  S7.9023438,0.3359375,6.546875,0.6176758C5.3935547,0.8579102,4.3652344,1.5131836,3.6464844,2.4711914  c-0.4306641,0.574707-0.7226563,1.2167969-0.8681641,1.9082031C2.4873047,5.7587891,2,8.6484375,2,12.5C2,17.5976563,2,22,6,22h2.5  c2.9609375,0,4.4296875,0.6005859,5.7246094,1.1308594C15.3164063,23.5776367,16.3486328,24,18,24c3.6992188,0,4-5.2080078,4-11.5  C22,8.6484375,21.5126953,5.7587891,21.2216797,4.3793945z M10,17c0,0.2763672-0.2236328,0.5-0.5,0.5h-1v1  C8.5,18.7763672,8.2763672,19,8,19H7c-0.2763672,0-0.5-0.2236328-0.5-0.5v-1h-1C5.2236328,17.5,5,17.2763672,5,17v-1  c0-0.2763672,0.2236328-0.5,0.5-0.5h1v-1C6.5,14.2236328,6.7236328,14,7,14h1c0.2763672,0,0.5,0.2236328,0.5,0.5v1h1  c0.2763672,0,0.5,0.2236328,0.5,0.5V17z M12,16c-0.276123,0-0.5-0.223877-0.5-0.5c0-0.2761841,0.223877-0.5,0.5-0.5  s0.5,0.2238159,0.5,0.5C12.5,15.776123,12.276123,16,12,16z M14.5,20c-0.8271484,0-1.5-0.6728516-1.5-1.5s0.6728516-1.5,1.5-1.5  s1.5,0.6728516,1.5,1.5S15.3271484,20,14.5,20z M17.5,17c-0.8271484,0-1.5-0.6728516-1.5-1.5s0.6728516-1.5,1.5-1.5  s1.5,0.6728516,1.5,1.5S18.3271484,17,17.5,17z M12,13c-3.859375,0-7-2.4672852-7-5.5S8.140625,2,12,2s7,2.4672852,7,5.5  S15.859375,13,12,13z" fill="#303C42"/><g/><g/><g/><g/><g/><g/><g/><g/><g/><g/><g/><g/><g/><g/><g/></svg>