<?xml version="1.0" encoding="UTF-8"?>
<!DOCTYPE svg PUBLIC "-//W3C//DTD SVG 1.1//EN" "http://www.w3.org/Graphics/SVG/1.1/DTD/svg11.dtd">
<svg xmlns="http://www.w3.org/2000/svg" version="1.1" width="32px" height="32px" style="shape-rendering:geometricPrecision; text-rendering:geometricPrecision; image-rendering:optimizeQuality; fill-rule:evenodd; clip-rule:evenodd" xmlns:xlink="http://www.w3.org/1999/xlink">
<g><path style="opacity:0.655" fill="#bfc0c9" d="M 11.5,4.5 C 21.8069,3.62358 24.8069,7.79024 20.5,17C 24.1518,19.1447 25.8184,22.3113 25.5,26.5C 24.5,26.5 23.5,26.5 22.5,26.5C 21.031,19.6148 17.031,17.7814 10.5,21C 9.13865,22.5843 8.47199,24.4176 8.5,26.5C 7.5,26.5 6.5,26.5 5.5,26.5C 5.18158,22.3113 6.84825,19.1447 10.5,17C 7.65786,12.5724 7.99119,8.40571 11.5,4.5 Z M 12.5,7.5 C 19.1584,6.34448 21.1584,8.84448 18.5,15C 11.7496,16.4689 9.74962,13.9689 12.5,7.5 Z"/></g>
</svg>
